# Wavefront OBJ file automatically generated by Tiled2Unity

# Vertices (Count = 298)
v -32 -16 0
v -48 -16 0
v -48 0 0
v -32 0 0
v -64 -16 0
v -64 0 0
v -80 -16 0
v -80 0 0
v -944 -16 0
v -960 -16 0
v -960 0 0
v -944 0 0
v -976 -16 0
v -976 0 0
v -992 -16 0
v -992 0 0
v -1008 -16 0
v -1008 0 0
v -1024 -16 0
v -1024 0 0
v -32 -32 0
v -48 -32 0
v -64 -32 0
v -80 -32 0
v -944 -32 0
v -960 -32 0
v -976 -32 0
v -992 -32 0
v -1008 -32 0
v -1024 -32 0
v -32 -48 0
v -48 -48 0
v -64 -48 0
v -80 -48 0
v -944 -48 0
v -960 -48 0
v -976 -48 0
v -992 -48 0
v -1008 -48 0
v -1024 -48 0
v -32 -64 0
v -48 -64 0
v -64 -64 0
v -80 -64 0
v -944 -64 0
v -960 -64 0
v -976 -64 0
v -992 -64 0
v -1008 -64 0
v -1024 -64 0
v -32 -80 0
v -48 -80 0
v -64 -80 0
v -80 -80 0
v -944 -80 0
v -960 -80 0
v -976 -80 0
v -992 -80 0
v -1008 -80 0
v -1024 -80 0
v -32 -96 0
v -48 -96 0
v -64 -96 0
v -80 -96 0
v -944 -96 0
v -960 -96 0
v -976 -96 0
v -992 -96 0
v -1008 -96 0
v -1024 -96 0
v -32 -112 0
v -48 -112 0
v -64 -112 0
v -80 -112 0
v -944 -112 0
v -960 -112 0
v -976 -112 0
v -992 -112 0
v -1008 -112 0
v -1024 -112 0
v -32 -128 0
v -48 -128 0
v -64 -128 0
v -80 -128 0
v -944 -128 0
v -960 -128 0
v -976 -128 0
v -992 -128 0
v -1008 -128 0
v -1024 -128 0
v -32 -144 0
v -48 -144 0
v -64 -144 0
v -80 -144 0
v -944 -144 0
v -960 -144 0
v -976 -144 0
v -992 -144 0
v -1008 -144 0
v -1024 -144 0
v -32 -160 0
v -48 -160 0
v -64 -160 0
v -80 -160 0
v -944 -160 0
v -960 -160 0
v -976 -160 0
v -992 -160 0
v -1008 -160 0
v -1024 -160 0
v -32 -176 0
v -48 -176 0
v -64 -176 0
v -80 -176 0
v -960 -176 0
v -976 -176 0
v -992 -176 0
v -1008 -176 0
v -1024 -176 0
v -272 -192 0
v -288 -192 0
v -288 -176 0
v -272 -176 0
v -304 -192 0
v -304 -176 0
v -240 -208 0
v -256 -208 0
v -256 -192 0
v -240 -192 0
v -272 -208 0
v -288 -208 0
v -304 -208 0
v -320 -208 0
v -320 -192 0
v -336 -208 0
v -336 -192 0
v -640 -160 0
v -656 -160 0
v -656 -144 0
v -640 -144 0
v -320 -176 0
v -320 -160 0
v -304 -160 0
v -672 -160 0
v -672 -144 0
v -688 -160 0
v -688 -144 0
v -704 -160 0
v -704 -144 0
v -720 -160 0
v -720 -144 0
v -736 -160 0
v -736 -144 0
v -752 -160 0
v -752 -144 0
v -96 -176 0
v -96 -160 0
v -112 -176 0
v -112 -160 0
v -128 -176 0
v -128 -160 0
v -144 -176 0
v -144 -160 0
v -160 -176 0
v -160 -160 0
v -176 -176 0
v -176 -160 0
v -192 -176 0
v -192 -160 0
v -208 -176 0
v -208 -160 0
v -224 -176 0
v -224 -160 0
v -240 -176 0
v -240 -160 0
v -256 -176 0
v -256 -160 0
v -336 -176 0
v -336 -160 0
v -352 -176 0
v -352 -160 0
v -368 -176 0
v -368 -160 0
v -384 -176 0
v -384 -160 0
v -400 -176 0
v -400 -160 0
v -416 -176 0
v -416 -160 0
v -432 -176 0
v -432 -160 0
v -448 -176 0
v -448 -160 0
v -464 -176 0
v -464 -160 0
v -480 -176 0
v -480 -160 0
v -496 -176 0
v -496 -160 0
v -512 -176 0
v -512 -160 0
v -528 -176 0
v -528 -160 0
v -544 -176 0
v -544 -160 0
v -560 -176 0
v -560 -160 0
v -576 -176 0
v -576 -160 0
v -592 -176 0
v -592 -160 0
v -608 -176 0
v -608 -160 0
v -624 -176 0
v -624 -160 0
v -640 -176 0
v -768 -176 0
v -784 -176 0
v -784 -160 0
v -768 -160 0
v -800 -176 0
v -800 -160 0
v -816 -176 0
v -816 -160 0
v -832 -176 0
v -832 -160 0
v -848 -176 0
v -848 -160 0
v -864 -176 0
v -864 -160 0
v -880 -176 0
v -880 -160 0
v -896 -176 0
v -896 -160 0
v -912 -176 0
v -912 -160 0
v -928 -176 0
v -928 -160 0
v -944 -176 0
v -768 -144 0
v -272 -160 0
v -656 -176 0
v -672 -176 0
v -688 -176 0
v -704 -176 0
v -720 -176 0
v -736 -176 0
v -752 -176 0
v -80 -192 0
v -96 -192 0
v -112 -192 0
v -128 -192 0
v -144 -192 0
v -160 -192 0
v -176 -192 0
v -192 -192 0
v -208 -192 0
v -224 -192 0
v -352 -192 0
v -368 -192 0
v -384 -192 0
v -400 -192 0
v -416 -192 0
v -432 -192 0
v -448 -192 0
v -464 -192 0
v -480 -192 0
v -496 -192 0
v -512 -192 0
v -528 -192 0
v -544 -192 0
v -560 -192 0
v -576 -192 0
v -592 -192 0
v -608 -192 0
v -624 -192 0
v -640 -192 0
v -656 -192 0
v -672 -192 0
v -688 -192 0
v -704 -192 0
v -720 -192 0
v -736 -192 0
v -752 -192 0
v -768 -192 0
v -784 -192 0
v -800 -192 0
v -816 -192 0
v -832 -192 0
v -848 -192 0
v -864 -192 0
v -880 -192 0
v -896 -192 0
v -912 -192 0
v -928 -192 0
v -944 -192 0
v -960 -192 0
v -976 -192 0

# Texture cooridinates (Count = 4)
vt 0.0001220703 0.0001220703
vt 0.9998779 0.0001220703
vt 0.9998779 0.9998779
vt 0.0001220703 0.9998779

# Normal
vn 0 0 -1

# Groups (Count = 1)

g mesh_0001
f 1/1/1 2/2/1 3/3/1 4/4/1
f 2/1/1 5/2/1 6/3/1 3/4/1
f 5/1/1 7/2/1 8/3/1 6/4/1
f 9/1/1 10/2/1 11/3/1 12/4/1
f 10/1/1 13/2/1 14/3/1 11/4/1
f 13/1/1 15/2/1 16/3/1 14/4/1
f 15/1/1 17/2/1 18/3/1 16/4/1
f 17/1/1 19/2/1 20/3/1 18/4/1
f 21/1/1 22/2/1 2/3/1 1/4/1
f 22/1/1 23/2/1 5/3/1 2/4/1
f 23/1/1 24/2/1 7/3/1 5/4/1
f 25/1/1 26/2/1 10/3/1 9/4/1
f 26/1/1 27/2/1 13/3/1 10/4/1
f 27/1/1 28/2/1 15/3/1 13/4/1
f 28/1/1 29/2/1 17/3/1 15/4/1
f 29/1/1 30/2/1 19/3/1 17/4/1
f 31/1/1 32/2/1 22/3/1 21/4/1
f 32/1/1 33/2/1 23/3/1 22/4/1
f 33/1/1 34/2/1 24/3/1 23/4/1
f 35/1/1 36/2/1 26/3/1 25/4/1
f 36/1/1 37/2/1 27/3/1 26/4/1
f 37/1/1 38/2/1 28/3/1 27/4/1
f 38/1/1 39/2/1 29/3/1 28/4/1
f 39/1/1 40/2/1 30/3/1 29/4/1
f 41/1/1 42/2/1 32/3/1 31/4/1
f 42/1/1 43/2/1 33/3/1 32/4/1
f 43/1/1 44/2/1 34/3/1 33/4/1
f 45/1/1 46/2/1 36/3/1 35/4/1
f 46/1/1 47/2/1 37/3/1 36/4/1
f 47/1/1 48/2/1 38/3/1 37/4/1
f 48/1/1 49/2/1 39/3/1 38/4/1
f 49/1/1 50/2/1 40/3/1 39/4/1
f 51/1/1 52/2/1 42/3/1 41/4/1
f 52/1/1 53/2/1 43/3/1 42/4/1
f 53/1/1 54/2/1 44/3/1 43/4/1
f 55/1/1 56/2/1 46/3/1 45/4/1
f 56/1/1 57/2/1 47/3/1 46/4/1
f 57/1/1 58/2/1 48/3/1 47/4/1
f 58/1/1 59/2/1 49/3/1 48/4/1
f 59/1/1 60/2/1 50/3/1 49/4/1
f 61/1/1 62/2/1 52/3/1 51/4/1
f 62/1/1 63/2/1 53/3/1 52/4/1
f 63/1/1 64/2/1 54/3/1 53/4/1
f 65/1/1 66/2/1 56/3/1 55/4/1
f 66/1/1 67/2/1 57/3/1 56/4/1
f 67/1/1 68/2/1 58/3/1 57/4/1
f 68/1/1 69/2/1 59/3/1 58/4/1
f 69/1/1 70/2/1 60/3/1 59/4/1
f 71/1/1 72/2/1 62/3/1 61/4/1
f 72/1/1 73/2/1 63/3/1 62/4/1
f 73/1/1 74/2/1 64/3/1 63/4/1
f 75/1/1 76/2/1 66/3/1 65/4/1
f 76/1/1 77/2/1 67/3/1 66/4/1
f 77/1/1 78/2/1 68/3/1 67/4/1
f 78/1/1 79/2/1 69/3/1 68/4/1
f 79/1/1 80/2/1 70/3/1 69/4/1
f 81/1/1 82/2/1 72/3/1 71/4/1
f 82/1/1 83/2/1 73/3/1 72/4/1
f 83/1/1 84/2/1 74/3/1 73/4/1
f 85/1/1 86/2/1 76/3/1 75/4/1
f 86/1/1 87/2/1 77/3/1 76/4/1
f 87/1/1 88/2/1 78/3/1 77/4/1
f 88/1/1 89/2/1 79/3/1 78/4/1
f 89/1/1 90/2/1 80/3/1 79/4/1
f 91/1/1 92/2/1 82/3/1 81/4/1
f 92/1/1 93/2/1 83/3/1 82/4/1
f 93/1/1 94/2/1 84/3/1 83/4/1
f 95/1/1 96/2/1 86/3/1 85/4/1
f 96/1/1 97/2/1 87/3/1 86/4/1
f 97/1/1 98/2/1 88/3/1 87/4/1
f 98/1/1 99/2/1 89/3/1 88/4/1
f 99/1/1 100/2/1 90/3/1 89/4/1
f 101/1/1 102/2/1 92/3/1 91/4/1
f 102/1/1 103/2/1 93/3/1 92/4/1
f 103/1/1 104/2/1 94/3/1 93/4/1
f 105/1/1 106/2/1 96/3/1 95/4/1
f 106/1/1 107/2/1 97/3/1 96/4/1
f 107/1/1 108/2/1 98/3/1 97/4/1
f 108/1/1 109/2/1 99/3/1 98/4/1
f 109/1/1 110/2/1 100/3/1 99/4/1
f 111/1/1 112/2/1 102/3/1 101/4/1
f 112/1/1 113/2/1 103/3/1 102/4/1
f 113/1/1 114/2/1 104/3/1 103/4/1
f 115/1/1 116/2/1 107/3/1 106/4/1
f 116/1/1 117/2/1 108/3/1 107/4/1
f 117/1/1 118/2/1 109/3/1 108/4/1
f 118/1/1 119/2/1 110/3/1 109/4/1
f 120/1/1 121/2/1 122/3/1 123/4/1
f 121/1/1 124/2/1 125/3/1 122/4/1
f 126/1/1 127/2/1 128/3/1 129/4/1
f 127/1/1 130/2/1 120/3/1 128/4/1
f 130/1/1 131/2/1 121/3/1 120/4/1
f 131/1/1 132/2/1 124/3/1 121/4/1
f 132/1/1 133/2/1 134/3/1 124/4/1
f 133/1/1 135/2/1 136/3/1 134/4/1

g mesh_0002
f 137/1/1 138/2/1 139/3/1 140/4/1
f 125/1/1 141/2/1 142/3/1 143/4/1

g mesh_0003
f 138/1/1 144/2/1 145/3/1 139/4/1
f 144/1/1 146/2/1 147/3/1 145/4/1
f 146/1/1 148/2/1 149/3/1 147/4/1
f 148/1/1 150/2/1 151/3/1 149/4/1
f 150/1/1 152/2/1 153/3/1 151/4/1
f 152/1/1 154/2/1 155/3/1 153/4/1
f 114/1/1 156/2/1 157/3/1 104/4/1
f 156/1/1 158/2/1 159/3/1 157/4/1
f 158/1/1 160/2/1 161/3/1 159/4/1
f 160/1/1 162/2/1 163/3/1 161/4/1
f 162/1/1 164/2/1 165/3/1 163/4/1
f 164/1/1 166/2/1 167/3/1 165/4/1
f 166/1/1 168/2/1 169/3/1 167/4/1
f 168/1/1 170/2/1 171/3/1 169/4/1
f 170/1/1 172/2/1 173/3/1 171/4/1
f 172/1/1 174/2/1 175/3/1 173/4/1
f 174/1/1 176/2/1 177/3/1 175/4/1
f 141/1/1 178/2/1 179/3/1 142/4/1
f 178/1/1 180/2/1 181/3/1 179/4/1
f 180/1/1 182/2/1 183/3/1 181/4/1
f 182/1/1 184/2/1 185/3/1 183/4/1
f 184/1/1 186/2/1 187/3/1 185/4/1
f 186/1/1 188/2/1 189/3/1 187/4/1
f 188/1/1 190/2/1 191/3/1 189/4/1
f 190/1/1 192/2/1 193/3/1 191/4/1
f 192/1/1 194/2/1 195/3/1 193/4/1
f 194/1/1 196/2/1 197/3/1 195/4/1
f 196/1/1 198/2/1 199/3/1 197/4/1
f 198/1/1 200/2/1 201/3/1 199/4/1
f 200/1/1 202/2/1 203/3/1 201/4/1
f 202/1/1 204/2/1 205/3/1 203/4/1
f 204/1/1 206/2/1 207/3/1 205/4/1
f 206/1/1 208/2/1 209/3/1 207/4/1
f 208/1/1 210/2/1 211/3/1 209/4/1
f 210/1/1 212/2/1 213/3/1 211/4/1
f 212/1/1 214/2/1 215/3/1 213/4/1
f 214/1/1 216/2/1 137/3/1 215/4/1
f 217/1/1 218/2/1 219/3/1 220/4/1
f 218/1/1 221/2/1 222/3/1 219/4/1
f 221/1/1 223/2/1 224/3/1 222/4/1
f 223/1/1 225/2/1 226/3/1 224/4/1
f 225/1/1 227/2/1 228/3/1 226/4/1
f 227/1/1 229/2/1 230/3/1 228/4/1
f 229/1/1 231/2/1 232/3/1 230/4/1
f 231/1/1 233/2/1 234/3/1 232/4/1
f 233/1/1 235/2/1 236/3/1 234/4/1
f 235/1/1 237/2/1 238/3/1 236/4/1
f 237/1/1 239/2/1 105/3/1 238/4/1
f 239/1/1 115/2/1 106/3/1 105/4/1

g mesh_0004
f 154/1/1 220/2/1 240/3/1 155/4/1
f 176/1/1 123/2/1 241/3/1 177/4/1

g mesh_0005
f 216/1/1 242/2/1 138/3/1 137/4/1
f 242/1/1 243/2/1 144/3/1 138/4/1
f 243/1/1 244/2/1 146/3/1 144/4/1
f 244/1/1 245/2/1 148/3/1 146/4/1
f 245/1/1 246/2/1 150/3/1 148/4/1
f 246/1/1 247/2/1 152/3/1 150/4/1
f 247/1/1 248/2/1 154/3/1 152/4/1
f 248/1/1 217/2/1 220/3/1 154/4/1
f 249/1/1 250/2/1 156/3/1 114/4/1
f 250/1/1 251/2/1 158/3/1 156/4/1
f 251/1/1 252/2/1 160/3/1 158/4/1
f 252/1/1 253/2/1 162/3/1 160/4/1
f 253/1/1 254/2/1 164/3/1 162/4/1
f 254/1/1 255/2/1 166/3/1 164/4/1
f 255/1/1 256/2/1 168/3/1 166/4/1
f 256/1/1 257/2/1 170/3/1 168/4/1
f 257/1/1 258/2/1 172/3/1 170/4/1
f 258/1/1 129/2/1 174/3/1 172/4/1
f 136/1/1 259/2/1 180/3/1 178/4/1
f 259/1/1 260/2/1 182/3/1 180/4/1
f 260/1/1 261/2/1 184/3/1 182/4/1
f 261/1/1 262/2/1 186/3/1 184/4/1
f 262/1/1 263/2/1 188/3/1 186/4/1
f 263/1/1 264/2/1 190/3/1 188/4/1
f 264/1/1 265/2/1 192/3/1 190/4/1
f 265/1/1 266/2/1 194/3/1 192/4/1
f 266/1/1 267/2/1 196/3/1 194/4/1
f 267/1/1 268/2/1 198/3/1 196/4/1
f 268/1/1 269/2/1 200/3/1 198/4/1
f 269/1/1 270/2/1 202/3/1 200/4/1
f 270/1/1 271/2/1 204/3/1 202/4/1
f 271/1/1 272/2/1 206/3/1 204/4/1
f 272/1/1 273/2/1 208/3/1 206/4/1
f 273/1/1 274/2/1 210/3/1 208/4/1
f 274/1/1 275/2/1 212/3/1 210/4/1
f 275/1/1 276/2/1 214/3/1 212/4/1
f 276/1/1 277/2/1 216/3/1 214/4/1
f 277/1/1 278/2/1 242/3/1 216/4/1
f 278/1/1 279/2/1 243/3/1 242/4/1
f 279/1/1 280/2/1 244/3/1 243/4/1
f 280/1/1 281/2/1 245/3/1 244/4/1
f 281/1/1 282/2/1 246/3/1 245/4/1
f 282/1/1 283/2/1 247/3/1 246/4/1
f 283/1/1 284/2/1 248/3/1 247/4/1
f 284/1/1 285/2/1 217/3/1 248/4/1
f 285/1/1 286/2/1 218/3/1 217/4/1
f 286/1/1 287/2/1 221/3/1 218/4/1
f 287/1/1 288/2/1 223/3/1 221/4/1
f 288/1/1 289/2/1 225/3/1 223/4/1
f 289/1/1 290/2/1 227/3/1 225/4/1
f 290/1/1 291/2/1 229/3/1 227/4/1
f 291/1/1 292/2/1 231/3/1 229/4/1
f 292/1/1 293/2/1 233/3/1 231/4/1
f 293/1/1 294/2/1 235/3/1 233/4/1
f 294/1/1 295/2/1 237/3/1 235/4/1
f 295/1/1 296/2/1 239/3/1 237/4/1
f 296/1/1 297/2/1 115/3/1 239/4/1
f 297/1/1 298/2/1 116/3/1 115/4/1

g mesh_0006
f 129/1/1 128/2/1 176/3/1 174/4/1
f 128/1/1 120/2/1 123/3/1 176/4/1
f 124/1/1 134/2/1 141/3/1 125/4/1
f 134/1/1 136/2/1 178/3/1 141/4/1

